<?xml version="1.0" encoding="UTF-8"?>
<svg id="Layer_1" xmlns="http://www.w3.org/2000/svg" viewBox="0 0 1000 1000">
  <defs>
    <style>
      .cls-1 {
        fill: #0b0b0b;
      }

      .cls-2 {
        fill: #7f7f7f;
      }

      .cls-3 {
        fill: #030303;
      }

      .cls-4 {
        fill: #0a0a0a;
      }

      .cls-5 {
        fill: #7e7e7e;
      }

      .cls-6 {
        fill: #7d7d7d;
      }

      .cls-7 {
        fill: #f4f4f4;
      }

      .cls-8 {
        fill: #010101;
      }

      .cls-9 {
        fill: #0e0e0e;
      }

      .cls-10 {
        fill: #1d1d1d;
      }

      .cls-11 {
        fill: #080808;
      }

      .cls-12 {
        fill: #161616;
      }
    </style>
  </defs>
  <g>
    <path d="M813.98,426.3c-7.98-55.97-32.97-102.31-77.83-137.37-6.45-5.04-6.3-11.31-5.08-18.51,5.1-30,2.67-59.52-7.1-88.32-2.8-8.25-5.22-18.88-15.38-19.8-10.96-.99-15.14,9.64-19.03,17.75-11.99,25.03-16.62,51-5.56,79.54-38.85-11.39-76.62-13.95-116.5-7.16,4.65-8.58,11.01-12.83,16.94-17.21,12.64-9.34,25.5-18.41,38.57-27.13,8.05-5.37,13.08-11.69,11.5-21.97-.42-2.7.11-5.66.72-8.38,1.17-5.24,3.05-10.72,8.88-11.92,6.6-1.37,9.82,4.14,13.27,8.6,3.84,4.97,1.87,15.51,11.58,14.56,8.94-.88,9.04-10.31,11.95-16.6,3.57-7.72,7.14-15.47,12.61-21.98,8.72-10.38,19.39-9.86,27.03,1.34,7.61,11.17,11.52,24.05,14.54,36.98,2.74,11.75,8.96,19.76,18.85,26.69,43.49,30.46,68.23,73.07,78.41,124.63.52,2.66,3.47,8.2-4.64,4.69-3.61-1.56-1.69,3.84-1.32,5.94,2.63,15.04,5.49,30.05,8.13,44.23-4.32,6.11-11.26-16.77-13.21,2.46-3.31,8.76-.72,17.86-1.55,26.77-.44,4.68-1.45,7.82-5.77,2.17Z"/>
    <path class="cls-12" d="M343.75,634.9c-5.13,4.74-9.86,5.6-14.23-.09-1.81-9.93-6.13-15.75-17.43-11.28-2.97,1.17-5.24-1.36-7.44-3.09-19.34-8.72-32.38-24.31-43.9-41.86-6.52,5.54-8.23,16.83-18.6,13.97-10.27-2.83-9.26-13.29-10.99-21.06-8.4-37.93-2.22-72.72,24.1-102.54,3.04-3.44,1.83-5.06-.58-7.94-30.48-36.46-19.6-76.71,26.8-95.42-10.38-6.16-21.33-3.3-32.84-5.07,11.65-7.7,23.71-3.63,34.78-5.39,2.21-4.64-5.46-4.69-3.98-8.86,17.21,2.71,26.68-4.4,28.44-21.58,2.39-2.06,4.5-1.27,6.52.6.22.32.39.68.65.98,4.87,5.71-8.86,16.38,4.78,19.35,7.67,1.67,13.21,8.34,21.42,8.1,18.53-.97,36.16-7.9,54.79-8.3,3.13-.07,6.27-1.15,9.15.57,1.32,4.55-4.96,4.1-4.3,8.67,10.62,2.72,22.82-1.87,34.97,5.48-11.85,2-22.65-.15-32.44,4.45,1.08,4.37,5.05,3.57,7.75,4.69,35.81,14.85,46.35,60.85,20.04,89.38-4.78,5.19-5.03,7.25-.39,13.3,26.63,34.79,30.13,73.58,16.71,114.38-2.85,8.68-12.77,10.02-17.64,1.7-7.21-12.34-9.75-5.08-13.65,1.6-.97,1.65-2.8,2.8-4.24,4.17-2.83,1.38-4.81.07-6.52-2.07-.31-11.04,9.17-18.11,11.34-28.41,3.21-15.3,7.45-30.36,8.14-46.12.39-8.77-2.2-16.69-5.72-24.5-2.96-6.56-7.59-10.39-15.09-9.68-10.6,1-20.86-1.95-31.32-2.54-9.33-.53-15.24-6.52-20.65-13.25-2.87-5.68-.07-9.99,3.36-14.14,3.51-2.85,6.51-1.55,9.71.88,15.23,11.53,27.74,12.94,41.96,3.96,14.68-9.27,22.46-22.18,21.2-40.42-1.36-19.66-15.52-27.82-30.48-33.67-13.82-5.41-27.06.78-37.94,9.9-8.52,7.15-6.02,17.73-5.68,27.18.33,9.25,1.73,18.5-5.73,25.96-5.96,2.35-11.94,4.15-18.14.83-3.36-1.79-4.36-4.72-3.29-8.14,3.09-9.85,1.35-20.02,2.28-30,.84-8.96-2.99-15.36-10.26-20.33-13.51-9.22-33.3-9.21-45.24.3-16.63,13.24-21.89,31.34-14.61,50.23,5.61,14.55,23.5,25.37,39.76,23.96,8.05-.7,14.79-3.97,19-11.1,2.99-5.07,6.09-8.77,12.33-4.47,3.29,7.03,3.7,14.37,2.42,21.9-13.69,12.44-30.76,12.97-47.67,12.41-14.5-.48-17.89,1.46-22.84,15.34-11.14,31.24.26,57.28,18.11,81.97,4.02,5.56,8.52,10.76,13.41,15.56,6.48,6.36,13.93,11.72,23.32,11.38,12.9-.47,23.41,4.79,33.59,11.57,2.9,5.24,5.73,10.33,12.55,11.58,2.15.4,3.67,1.36,3.64,2.01-.08,1.73-12.27,2.58-23.19,3.03Z"/>
    <path class="cls-1" d="M561.79,412.41c3.17-.58,6.34-1.16,8.76,3.54-28.27,5.74-55.64,7.27-82.74-2.91-9.84-3.7-17.16-10.19-22-19.49-6.12-11.77-4.81-16.65,7.23-21.5,5.21-2.1,10.87-9.01,16.15-4.37,4.42,3.89-.58,10.53-1.76,15.79-4.26,18.88-4.21,19.31,14.24,25.2,3.81,1.22,7.73,2.09,11.6,3.13,16.15,2.46,32.34,1.26,48.52.62Z"/>
    <path class="cls-9" d="M751.01,463.65c2.03,3.9,3.83,7.35,6.18,11.87,6.78-11.98,6.86-24.84,11.67-36.27,4.98-1.45,3.64,5.85,8.13,5.51,4.21-5.88,3-14.15,7.01-21.19,6.85,14.12-1.12,35.02-13.2,44.08-5.35,4.01-6.84,13.08-10.34,19.72-1.24,2.35-1.02,6.21-4.33,6.66-4.09.55-3.51-3.54-4.48-5.9-2.32-5.64-4.87-4.14-7.51-.32-1.37,1.99-2.27,4.48-4.03,5.97-3.68,3.12-4.56,12.08-10.35,9.17-4.49-2.26-1.45-10.44-2.75-15.86-.21-.88,1.06-3.02,1.28-2.97,17.21,3.96,12.2-15.62,22.74-20.47Z"/>
    <path d="M701.8,213.47c-5.71,3.33-2.22,9.31-6.04,12.24-6.2-8.85-6.94-26.89-1.43-34.05,4.31-5.59,7.22-.82,9.54,1.84,10.65,12.17,10.85,26.74,9.6,43.96-7.32-7.83-6.22-17.39-11.67-24Z"/>
    <path class="cls-6" d="M304.64,620.44c3.29-1.3,6.55-2.67,9.87-3.88,5.89-2.15,11.69-2.02,17.2,1.2,4.77,2.79,7.46,6.71,7.53,12.56.11,9.24-8.39-1.05-9.72,4.5-16.16,3.66-22.51,1.43-27.17-9.54.77-1.61,1.53-3.22,2.3-4.83Z"/>
    <path class="cls-12" d="M322.01,322.69c6.27-1.5,10.28,2.45,11.76,7.79,1.72,6.19-3.68,8.07-8.12,10.05-2.57,1.14-5.2-2.92-8.2.48,2.9,9.57,10.09,6.1,16.4,5.14,4.87-5.11,11.18-9.44,8.62-18.19-2.03-6.92-5.52-13.39-12.84-14.28-9-1.1-16.83,2.73-21.75,11.01,1.47.89,2.93,1.77,4.4,2.66,3.23-1.6,6.31-3.83,9.73-4.65Z"/>
    <path class="cls-10" d="M406.68,591.12c1.77.89,3.54,1.78,5.31,2.66-2.38,6.35-7.92,9.95-12.54,14.33-4.56,4.33-1.18,4.67,2.35,5.09-6.9,4.55-14.14,5.63-21.82,2.12-.45-.38-.89-.76-1.35-1.13-.43-.69-.96-1.47-.86-2.21,1.24-9.07,19.09-21.92,28.9-20.86Z"/>
    <path d="M813.98,426.3c6.79-.6,3.55-5.95,4.11-9.22,1.12-6.56-.87-13.61,3.2-19.71.62,12.8-.68,25.39-2.45,38.67-6.28-2.62-4.88-6.43-4.87-9.74Z"/>
    <path d="M561.79,412.41c-16.22,3.02-32.41,4.21-48.52-.62,16.17.21,32.35.41,48.52.62Z"/>
    <path class="cls-8" d="M745.54,668.07c-8.78-34.26-75.61-45.41-152.49-58.24-40.05-6.68-74.28-8.72-99.35-9.21-31.11.73-61.68,5.36-91.89,12.58-7.49,3.88-15.5-5.01-22.9.95-.79.83-1.36,1.79-1.84,2.8-2.07,4.33-4.06,7.16-4.31,7.63-1.41,2.63-7.73,5.1-29.76,4.15-3.99,1.08-7.06,3.73-7.4,6.73-.5,4.49,5.31,8.11,9.3,9.04,1.29.3,1.84.19,6.78.15,3.73-.04,6.78,0,8.83.03,1.2,0,2.4.02,3.61.03,1.2.01,2.41.03,3.61.05,6.54,49.14-8.49,92.92-33.24,134.35-3.37,5.64-6.26,6.9-12.38,3.26-16.58-9.87-33.51-19.17-50.53-28.26-6.48-3.46-6.42-6.23-2.02-11.78,16.06-20.24,30.65-41.42,38.49-66.48,2.16-6.91,4.57-13.75,4.46-21.13.88-8.95,5.72-11.6,14.55-10.93,5.94.45,11.89.62,17.85.72,3.12-2.1,3.74-4.73,2.74-8.95-1.19-5.05-3.22-8.04-9.01-6.86-2.74.56-5.53.84-8.23,1.68-9.92,1.4-18.75-3.14-28.06-5.13-31.39-.18-60.39-5.95-79.71-34.24-5.75.72-3.8,4.04-2.42,7.16,10.71,22.58,30.01,34.08,52.95,40.57,6.42,1.81,11.01,3.75,10.9,11.76-.42,28.98-9.64,54.45-28.82,76.32-5.05,5.76-8.43,6.52-14.09-.12-55.29-64.88-81.63-138.48-67.05-223.95,13.87-81.34,50.84-150.08,116.68-201.1,48.1-37.28,104.66-50.18,164.47-51.64,25.99-.63,51.97-1.78,81.12-2.81-35.23-9.56-106.07-22.87-184.09,4.94-124.08,44.23-203.28,170-204.97,287.45-.28,19.2.46,92.49,45.3,161.68,14.12,21.79,31.95,41.92,54.05,60.2,69.22,57.26,149.49,80.35,238.44,76.72,45.29-1.85,87.98-11.38,127.61-30.61,8.06-3.91,22.56-11.43,39.35-23.07,15.58-10.8,104.71-72.58,93.47-116.47ZM425.01,802.7c-3.24,7.31-7.21,9.11-14.99,6.88-14.68-4.21-29.6-7.73-44.6-10.68-8.32-1.64-8.64-5.06-5.19-11.53,5.11-9.58,9.51-19.55,14.7-29.09,18.61-34.19,27.4-71.2,30.99-109.54.94-10,5.26-13.95,14.71-15.36,21.78-3.26,21.46-3.52,25.11,18.43,2.45,14.77,3.26,29.59,3.33,44.51-.25,37.21-9.06,72.46-24.08,106.37ZM512.67,774.49c-1.31,4.65-2.74,9.27-4.3,13.84q-8.94,26.17-36.18,26.18-24.01.02-12.71-20.7c25.91-47.39,31.23-98.33,26.11-151.07-.19-2-1.25-4.12-.83-5.94,1.14-4.98-5.78-12.38,4.4-14.74,13.21-3.06,19.9-.28,22.97,10.59,13.31,47.21,13.88,94.51.54,141.84ZM589.78,781.93c-2.82,8.72-7.87,14.65-17.03,16.96-8.97,2.27-17.81,5.04-26.75,7.42-2.22.59-4.84,2.42-6.85.5-2.7-2.57.09-5.28,1.05-7.57,13.93-33.52,21.3-68.39,21.02-104.68-.15-19.37-2.46-38.62-7.72-57.33-2.44-8.7.85-11.14,8.83-9.97,14.89,2.17,23.28,11.62,27.95,25.14,7.19,20.78,9.76,42.28,9.95,65.36-.43,21.08-3.56,42.91-10.44,64.18Z"/>
    <path class="cls-5" d="M368.19,636.89c-3.09-.65-6.41-2.37-9.24-1.77-15.44,3.26-13.27-5.6-10.73-14.93-.52-2.51.69-4.27,2.51-5.77,20.24-6.86,32.92,0,30.48,16.45-.57,3.81-1.69,6.21-6.01,3.72-4.55-5.97-4.69,1.49-7.01,2.3Z"/>
    <path class="cls-10" d="M375.2,634.59c6.72-7.16,4.76-15.18-4.48-18.59-6.87-2.53-13.29-.1-19.79,1.61-.98-6.24,2.6-8.9,8.01-9.65,8.22-1.14,16.17-1.08,21.08,7.41,0,0-.04-.04-.04-.04,1.28,5.29,3.1,10.57,2.24,16.1-.66,4.25-1.8,8.54-7.03,3.17Z"/>
    <path class="cls-8" d="M380.02,615.36c-9.9-1.93-20.01-6.44-29.09,2.25-.9.86-1.81,1.72-2.71,2.58-3.21,1.49-6.29,1.41-9.02-1.02-6.54-5.84-14.29-6.34-22.64-6.19-14.78.26-23.09-10.66-33.16-19.34-10.75-9.27-17.78-20-22.33-33.13-4.75-13.68-9.79-27.09-9.85-41.97-.05-11.32,4.4-21.2,8.49-31.05,4.4-10.58,11.36-16.32,24.78-11.65,11.21,3.9,23.1-.41,34.21-4.13,3.42-1.15,6.41-3.53,10.24-1.67,9.05,2.29,17.44-1.56,26.11-2.82,10.79,5.34,22.11,8.7,34.21,9.24,2.81.13,5.66.19,8.41.74,6.47,1.3,12.94-7.26,19.22-.26,7.15,7.97,12.19,17.73,13.34,27.97,2.96,26.43-3.29,51.74-13.55,75.97-1.73,4.1-6.59,6.87-10,10.26-5.06,12.29-20.85,12.77-26.66,24.24Z"/>
    <path class="cls-3" d="M348.12,444.16c-.07-14.64,1.77-29.26-.76-43.95-.89-5.16,4.56-8.11,8.18-11.24,23.08-19.98,57.1-16.12,73.79,9.3,8.03,12.23,9.18,38.45-4.75,53.09-17.28,18.16-40.68,23.8-57.36,13.97-4.89-2.88-6.15-8.35-10-11.84-6.65.41-9.75-2.63-9.09-9.34Z"/>
    <path class="cls-3" d="M328.83,448.11c-6.49,3.36-4.86,11.97-11.67,16.1-21.08,12.78-52.86,2.85-63.56-20.89-11.81-26.2,3.32-59.52,31.03-65.94,16.83-3.9,32.82-.35,45.5,12.72,3.79,3.91,6.35,8.61,5.94,14.12-.8,10.78-3.7,21.39-.38,32.38,1.29,4.29-5.21,5.75-6.19,9.78l.33,1.12-1,.62Z"/>
    <path class="cls-6" d="M328.83,448.11c.34-.53.56-1.12.66-1.74,5.92-3.14,12.11-4.13,18.63-2.22,4.16,2.02,7.3,5.01,9.09,9.34-.72,4.57-1.44,9.15-2.16,13.72-.47.64-.94,1.28-1.39,1.93-10.61,15.52-13.99,15.64-24.72.88-2.19-7.29-4.35-14.59-.11-21.91Z"/>
    <path d="M700.37,437.37c-12.96-54.1-35.89-102.43-79.55-139.02-16.66-13.96-35.35-20.48-57.01-17.36-8.02,1.16-17.31,2.52-20.84,10.29-6.85,15.08-11.84,31-18.23,48.27,10.72-1.14,18.92-3.22,27.43-2.12,24.24,3.12,38.08,20.05,49.88,38.49,13.24,20.68,29.31,37.78,49.46,51.97,12.63,8.89,26.82,19.04,21.78,38.85-.1.38.95,1.06,2.07,2.23,4.85-8.56,8.71-5.53,12.3,1.02,5.94,10.84,12.02,21.6,18.04,32.39,1-.27,1.99-.54,2.99-.81-2.33-21.44-3.26-43.04-8.33-64.18ZM598.85,319.16c-3.05,7.13-19.85,15.71-31.56,14.4,7.16-6.26,11.38-11.8,7.78-20-1.32-3-.41-6.23,3.68-5.2,6.21,1.55,12.24,3.87,18.26,6.09,1.98.73,2.94,2.17,1.85,4.72Z"/>
    <path class="cls-7" d="M387.7,449.29c-16.21.03-28.14-11.81-28.31-28.08-.15-14.87,12.52-27.52,27.67-27.63,15.35-.11,28.25,12.26,28.2,27.05-.05,16.55-11.67,28.63-27.56,28.65Z"/>
    <path class="cls-7" d="M297.13,449.2c-15.26.11-27.89-11.95-28.32-27.06-.45-15.61,12.12-28.41,27.98-28.49,15.27-.07,28.22,12.33,28.21,27.05,0,16.29-11.83,28.38-27.87,28.5Z"/>
    <path class="cls-4" d="M394.68,436.12c-9.98,2.3-18.85.95-22.03-10.14-3.35-11.69,3.98-17.58,13.96-21.13,19.31,7.01,22.44,19.14,8.07,31.27Z"/>
    <path class="cls-2" d="M394.68,436.12c2.78-3.37,6.76-6.15,7.22-10.79.42-4.3,5.15-13.23-6.76-6.82-4.74,2.56-9.18-1.28-5.95-6.67,2.84-4.73.07-5.35-2.58-7,9.3-.92,15.67,3.03,17.33,12.22,1.47,8.13.85,16.13-9.26,19.05Z"/>
    <path class="cls-11" d="M304.66,407.48c7.26,4.85,9.7,11.54,6.88,19.74-2.38,6.93-7.88,9.78-14.97,9.68-9.95-.14-13.72-6.82-15.78-15.21,2.72-9.79,13.88-16.43,23.87-14.21Z"/>
    <path class="cls-2" d="M304.66,407.48c-.78-.07-2.01-.51-2.28-.17-5.73,7.02-14.45,9.51-21.58,14.38,1.2-14.5,10.8-20.21,23.87-14.21Z"/>
  </g>
  <g>
    <path d="M486.6,518.45l31.96,40.18v-27.85c0-3.89-.56-6.51-1.67-7.88-1.53-1.85-4.09-2.74-7.69-2.68v-1.77h21.4v1.77c-2.74.35-4.58.8-5.52,1.36-.94.56-1.67,1.46-2.2,2.72-.53,1.26-.79,3.42-.79,6.47v53.94h-1.62l-43.81-53.94v41.18c0,3.73.85,6.24,2.56,7.55,1.7,1.31,3.65,1.96,5.85,1.96h1.53v1.77h-22.98v-1.77c3.57-.03,6.05-.76,7.45-2.2,1.4-1.43,2.1-3.87,2.1-7.31v-45.72l-1.39-1.72c-1.37-1.72-2.58-2.85-3.63-3.39-1.05-.54-2.56-.84-4.54-.91v-1.77h22.98Z"/>
    <path d="M559.55,522.18v26.37h1.29c4.11,0,7.09-1.29,8.93-3.87,1.85-2.58,3.03-6.39,3.54-11.42h1.82v33.92h-1.82c-.38-3.69-1.19-6.72-2.41-9.08-1.23-2.36-2.65-3.94-4.28-4.75-1.62-.81-3.98-1.22-7.07-1.22v18.25c0,3.57.15,5.75.45,6.54.3.8.87,1.45,1.7,1.96.83.51,2.17.76,4.01.76h3.87c6.05,0,10.9-1.4,14.55-4.2,3.65-2.8,6.27-7.07,7.86-12.8h1.77l-2.91,20.59h-55.99v-1.77h2.15c1.88,0,3.39-.33,4.54-1,.83-.45,1.46-1.21,1.91-2.29.35-.76.53-2.77.53-6.02v-42.61c0-2.93-.08-4.73-.24-5.4-.32-1.11-.91-1.97-1.77-2.58-1.21-.89-2.87-1.34-4.97-1.34h-2.15v-1.77h54.22v19.16h-1.82c-.92-4.68-2.22-8.04-3.89-10.08-1.67-2.04-4.04-3.54-7.09-4.49-1.78-.57-5.13-.86-10.03-.86h-6.69Z"/>
    <path d="M695.13,518.45v1.77c-1.21.1-2.23.43-3.06,1-.83.57-1.56,1.45-2.2,2.63-.19.38-1.19,2.85-3.01,7.41l-20.3,53.46h-1.86l-16.05-41.75-17.68,41.75h-1.77l-21.31-52.89c-2.17-5.32-3.68-8.54-4.54-9.65-.86-1.11-2.31-1.77-4.35-1.96v-1.77h28.09v1.77c-2.26.06-3.77.41-4.51,1.03-.75.62-1.12,1.39-1.12,2.32,0,1.21.78,3.77,2.34,7.69l12.71,31.44,10.18-24.56-2.68-6.88c-1.47-3.76-2.6-6.27-3.39-7.52-.8-1.26-1.71-2.16-2.75-2.7-1.04-.54-2.56-.81-4.56-.81v-1.77h31.39v1.77c-2.2.03-3.77.21-4.73.53-.67.22-1.19.6-1.58,1.12-.38.53-.57,1.12-.57,1.79,0,.73.72,2.98,2.15,6.74l11.8,30.67,10.56-27.76c1.11-2.87,1.8-4.83,2.05-5.88.25-1.05.38-2.02.38-2.91,0-1.31-.45-2.33-1.34-3.08-.89-.75-2.6-1.15-5.11-1.22v-1.77h16.82Z"/>
    <path d="M721.98,553.71v18.15c0,3.5.21,5.71.65,6.62.43.91,1.19,1.63,2.27,2.17,1.08.54,3.11.81,6.07.81v1.77h-33.16v-1.77c2.99,0,5.02-.28,6.09-.84,1.07-.56,1.82-1.28,2.25-2.17.43-.89.65-3.09.65-6.59v-42.04c0-3.5-.21-5.71-.65-6.62-.43-.91-1.19-1.63-2.27-2.17-1.08-.54-3.11-.81-6.07-.81v-1.77h30.1c7.83,0,13.57.54,17.2,1.62s6.59,3.08,8.89,6c2.29,2.91,3.44,6.33,3.44,10.25,0,4.78-1.72,8.73-5.16,11.85-2.2,1.98-5.27,3.46-9.22,4.44l15.57,21.93c2.04,2.84,3.49,4.6,4.35,5.3,1.31.99,2.82,1.53,4.54,1.62v1.77h-20.4l-20.88-29.52h-4.25ZM721.98,521.94v28.38h2.72c4.43,0,7.74-.41,9.94-1.22s3.92-2.28,5.18-4.4c1.26-2.12,1.89-4.88,1.89-8.29,0-4.94-1.16-8.58-3.46-10.94-2.31-2.36-6.03-3.54-11.16-3.54h-5.11Z"/>
    <path d="M792.64,553.71v18.15c0,3.5.21,5.71.65,6.62.43.91,1.19,1.63,2.27,2.17,1.08.54,3.11.81,6.07.81v1.77h-33.16v-1.77c2.99,0,5.02-.28,6.09-.84,1.07-.56,1.82-1.28,2.25-2.17.43-.89.65-3.09.65-6.59v-42.04c0-3.5-.21-5.71-.65-6.62-.43-.91-1.19-1.63-2.27-2.17-1.08-.54-3.11-.81-6.07-.81v-1.77h30.1c7.83,0,13.57.54,17.2,1.62s6.59,3.08,8.89,6c2.29,2.91,3.44,6.33,3.44,10.25,0,4.78-1.72,8.73-5.16,11.85-2.2,1.98-5.27,3.46-9.22,4.44l15.57,21.93c2.04,2.84,3.49,4.6,4.35,5.3,1.31.99,2.82,1.53,4.54,1.62v1.77h-20.4l-20.88-29.52h-4.25ZM792.64,521.94v28.38h2.72c4.43,0,7.74-.41,9.94-1.22s3.92-2.28,5.18-4.4c1.26-2.12,1.89-4.88,1.89-8.29,0-4.94-1.16-8.58-3.46-10.94-2.31-2.36-6.03-3.54-11.16-3.54h-5.11Z"/>
  </g>
</svg>